<svg width="543" height="410" viewBox="0 0 543 410" fill="none" xmlns="http://www.w3.org/2000/svg">
<g clip-path="url(#clip0_1_306)">
<path d="M123.13 319.72H393.56V128.88C393.56 123.65 389.32 119.41 384.09 119.41H132.6C127.37 119.41 123.13 123.65 123.13 128.88V319.72Z" fill="url(#paint0_linear_1_306)"/>
<path d="M132.69 283.31H383.52V129.22H132.69V283.31Z" fill="url(#paint1_linear_1_306)"/>
<path d="M106.34 129.93H42.54L42.65 129.36C43.67 124.1 48.31 120.29 53.68 120.29C54.45 120.29 55.23 120.37 55.98 120.53C59.3 114.21 65.76 110.3 72.92 110.3C79.02 110.3 84.78 113.23 88.38 118.15C89.69 117.75 91.06 117.55 92.45 117.55C99.39 117.55 105.2 122.52 106.26 129.37L106.34 129.93ZM43.71 128.98H105.21C104.01 122.98 98.62 118.51 92.44 118.51C91.04 118.51 89.66 118.73 88.34 119.17L88 119.28L87.8 118.99C84.39 114.15 78.82 111.26 72.91 111.26C65.99 111.26 59.76 115.1 56.65 121.29L56.48 121.63L56.11 121.54C55.32 121.34 54.49 121.24 53.67 121.24C48.96 121.25 44.86 124.47 43.71 128.98Z" fill="#8454F5"/>
<path d="M340.66 51.3999L340.44 51.2899C317.8 39.7299 320.84 17.3399 320.87 17.1199L320.93 16.7099H321.34C335.74 16.7099 340.26 12.0699 340.3 12.0199L340.65 11.6499L341 12.0199C341.04 12.0599 345.57 16.6999 359.96 16.6999H360.37L360.43 17.1099C360.46 17.3299 363.5 39.7199 340.86 51.2799L340.66 51.3999ZM321.77 17.6599C321.48 20.6899 320.53 39.9099 340.65 50.3299C360.78 39.9099 359.82 20.6999 359.54 17.6599C347.04 17.5799 341.95 14.0999 340.65 12.9999C339.36 14.0999 334.27 17.5799 321.77 17.6599Z" fill="#8454F5"/>
<path d="M464.55 348.93C461.14 333.36 468.51 329.47 475.63 325.71C481.45 322.64 486.95 319.74 486.65 310.56C486.26 298.39 494.55 293.97 501.86 290.06C507.3 287.15 512.44 284.41 513.21 278.87C515.05 265.55 527.34 248.99 527.47 248.83L528.23 249.4C528.11 249.56 515.97 265.93 514.15 279.01C513.32 285.03 507.97 287.88 502.31 290.91C494.9 294.87 487.23 298.96 487.6 310.54C487.91 320.31 481.89 323.49 476.07 326.56C468.95 330.32 462.23 333.87 465.48 348.73L464.55 348.93Z" fill="url(#paint2_linear_1_306)"/>
<path d="M468.29 344.96C468.13 344.96 467.96 344.95 467.8 344.94C464.72 344.71 461.7 342.37 458.3 337.58L458.09 337.28L458.33 337C458.38 336.93 463.84 330.29 461.84 317.81C461.37 314.9 460.75 312.67 460.25 310.88C459.52 308.27 459.03 306.54 459.84 305.17C460.87 303.42 463.65 302.51 471.48 300.64C479.82 298.65 482.6 289.26 485.06 280.97C487.38 273.16 489.57 265.8 496.06 266.03C502.02 266.26 511.08 256.92 519.06 248.68C526.47 241.04 533.47 233.84 537.94 233.98C539.01 234.02 539.92 234.47 540.63 235.32C544.62 240.07 540.9 247.27 537.3 254.24C534.23 260.18 531.33 265.8 533.2 269.5C535.55 274.15 535.87 278.36 534.15 281.67C532.11 285.59 527.36 288.12 520.02 289.18C513.31 290.15 512.58 297.47 511.82 305.22C510.92 314.26 509.91 324.51 498.65 325.49C490.29 326.21 484.65 332.08 479.68 337.26C475.71 341.38 472.27 344.96 468.29 344.96ZM459.28 337.32C462.38 341.61 465.19 343.8 467.87 344C471.61 344.28 475.02 340.72 478.97 336.61C484.06 331.31 489.83 325.3 498.55 324.55C509.02 323.64 509.95 314.24 510.86 305.14C511.67 297.01 512.43 289.33 519.88 288.25C526.9 287.23 531.42 284.88 533.31 281.25C534.89 278.22 534.56 274.31 532.35 269.95C530.26 265.81 533.27 259.99 536.46 253.82C539.92 247.13 543.49 240.21 539.91 235.95C539.37 235.31 538.72 234.98 537.91 234.95C533.87 234.82 527.01 241.87 519.75 249.36C511.33 258.04 502.64 267 496.27 267C496.19 267 496.11 267 496.03 267C490.28 266.79 488.28 273.49 485.98 281.26C483.45 289.8 480.58 299.47 471.7 301.58C464.62 303.27 461.52 304.21 460.66 305.66C460.05 306.69 460.47 308.17 461.16 310.63C461.67 312.44 462.3 314.7 462.78 317.66C464.63 329.25 460.36 335.87 459.28 337.32Z" fill="url(#paint3_linear_1_306)"/>
<path d="M468.64 341.7C468.53 341.7 468.42 341.7 468.31 341.68C463.26 341.22 459.37 330.15 455.62 319.45C453.84 314.37 452.16 309.58 450.52 306.5C449.25 304.11 447.63 301.62 446.07 299.22C441.91 292.81 437.61 286.18 439.01 280.36C439.75 277.3 441.94 274.75 445.72 272.57C454 267.8 452.72 265.11 449.93 259.2C447.88 254.87 445.08 248.94 444.97 239.6C444.92 235.59 444.83 232.12 444.75 229.06C444.49 219.22 444.35 214.28 446.46 212.49C447.33 211.75 448.55 211.56 450.29 211.89C453.27 212.46 454.56 214.86 455.92 217.41C457.66 220.66 459.63 224.34 465.59 225.59C471.18 226.76 476.55 228.35 478.03 232.07C479.07 234.68 478.09 238.11 475.01 242.57C474.26 243.65 474.01 244.57 474.23 245.38C474.72 247.17 477.5 248.47 480.72 249.98C485.31 252.12 491.01 254.78 492.63 260.3C493.93 264.75 492.42 270.29 488.02 277.25C477.6 293.72 478.02 304.89 478.39 314.74C478.66 322.04 478.92 328.94 474.52 336.64C472.57 340.04 470.65 341.7 468.64 341.7ZM448.79 212.7C448.05 212.7 447.49 212.87 447.07 213.23C445.32 214.72 445.45 219.81 445.7 229.04C445.78 232.1 445.87 235.58 445.92 239.6C446.03 248.73 448.78 254.55 450.79 258.81C453.56 264.67 455.23 268.2 446.19 273.41C442.65 275.45 440.6 277.8 439.93 280.59C438.63 286.01 442.82 292.46 446.87 298.71C448.44 301.13 450.07 303.64 451.36 306.06C453.03 309.2 454.73 314.03 456.52 319.14C460.01 329.07 463.96 340.33 468.4 340.73C470.1 340.88 471.88 339.35 473.7 336.16C477.97 328.69 477.73 322.24 477.45 314.76C477.08 304.77 476.65 293.44 487.23 276.73C491.48 270.01 492.95 264.72 491.73 260.56C490.23 255.46 484.97 253 480.33 250.84C476.89 249.24 473.92 247.85 473.32 245.63C473.02 244.53 473.32 243.36 474.24 242.03C477.12 237.86 478.07 234.72 477.16 232.43C475.84 229.13 470.48 227.6 465.41 226.53C459.02 225.19 456.85 221.13 455.1 217.87C453.79 215.43 452.66 213.32 450.13 212.84C449.61 212.75 449.17 212.7 448.79 212.7Z" fill="url(#paint4_linear_1_306)"/>
<path d="M468.74 347.6L467.83 347.31C472.92 331.22 463.71 295.1 460.97 286.32C459.62 282 460.87 275.49 462.07 269.2C463.63 261.08 465.24 252.67 461.13 249.52C453.42 243.6 453.82 229.92 453.84 229.34L454.79 229.38C454.79 229.52 454.38 243.15 461.71 248.77C466.29 252.28 464.62 260.97 463 269.38C461.82 275.56 460.59 281.94 461.87 286.03C465.27 296.91 473.82 331.55 468.74 347.6Z" fill="url(#paint5_linear_1_306)"/>
<path d="M430.22 243.06C428.1 237.68 419.82 238.5 420.58 246.1C421.34 253.71 426.67 261.83 418.55 274.76C410.43 287.7 428.95 290.23 435.54 298.35C442.13 306.47 444.42 317.63 450 324.73C455.58 331.83 459.38 348.83 463.95 342.48C468.52 336.14 464.22 327.89 464.73 316.48C465.24 305.07 475.4 297.84 465.24 290.48C455.08 283.12 444.86 280.87 448.22 264.28C449.7 256.97 436.82 259.8 430.22 243.06Z" fill="url(#paint6_linear_1_306)"/>
<path d="M471.35 343.96C471.29 343.62 465.65 310.19 453.02 301.03C440.14 291.69 437.8 283.06 433.3 262.7L434.23 262.5C438.67 282.6 440.98 291.12 453.57 300.26C466.52 309.65 472.05 342.42 472.28 343.81L471.35 343.96Z" fill="white"/>
<path d="M459.96 342.76C459.96 342.76 463.71 333.48 456.88 320.29C450.05 307.1 444.52 309.13 460.99 298.98C477.45 288.83 461.09 256.87 475.11 252.81C489.12 248.75 501.3 197.02 511.95 203.6C522.61 210.19 508.4 235.56 516.01 243.16C523.62 250.77 524.64 260.45 508.91 268.3C493.18 276.14 520.07 306.08 498.76 315.21C477.45 324.35 483.56 360.16 459.96 342.76Z" fill="url(#paint7_linear_1_306)"/>
<path d="M466.46 352.6C466.44 352.48 464.14 340.6 471.38 325.25C478.76 309.61 482.29 292.51 480.82 279.51C480.03 272.47 484.54 269.72 488.9 267.05C493.19 264.43 497.63 261.72 497.39 254.78C497.17 248.51 499.82 233.82 499.93 233.2L500.87 233.37C500.84 233.52 498.12 248.58 498.34 254.74C498.6 262.23 493.92 265.09 489.39 267.86C485.09 270.48 481.04 272.96 481.76 279.4C483.24 292.57 479.68 309.86 472.23 325.65C465.13 340.7 467.35 352.29 467.38 352.41L466.46 352.6Z" fill="white"/>
<path d="M483.68 287.04C488.47 282.6 494.79 281.96 493.47 288.55C492.15 295.14 487.63 297.03 489.89 301.17C492.15 305.31 495.92 309.46 489.51 314.55C483.1 319.64 479.53 320.2 477.64 329.81C475.76 339.42 476.13 345.98 467.84 346.39C459.55 346.8 462.75 334.71 465.39 329.25C465.39 329.25 469.35 323.02 466.71 314.83C464.07 306.64 458.99 302.22 469.72 299.44C480.48 296.64 480.46 290.03 483.68 287.04Z" fill="white"/>
<path d="M468.46 352.52C468.43 351.34 467.86 323.67 473.04 319.01C478.33 314.25 479.34 305.85 479.48 301.26C479.66 295.28 487.38 291.73 487.71 291.59L488.1 292.46C488.02 292.49 480.59 295.91 480.43 301.29C480.26 307.08 478.95 314.98 473.68 319.72C468.83 324.09 469.41 352.22 469.42 352.5L468.46 352.52Z" fill="url(#paint8_linear_1_306)"/>
<path d="M487.9 341.22L479.31 373.8H460.12L451.54 341.22H487.9Z" fill="url(#paint9_linear_1_306)"/>
<path d="M487.9 341.22C487.9 341.22 469 344.77 469 373.8H460.13L451.54 341.22H487.9Z" fill="url(#paint10_linear_1_306)"/>
<path d="M149.62 256.09H124.35V258.95H149.62V256.09Z" fill="#1487E3"/>
<path d="M119.08 177.14H78.74V125.56H79.7V176.19H119.08V177.14Z" fill="#8454F5"/>
<path d="M289.8 143.15H288.85V89.96H340.18V45.23H341.14V90.92H289.8V143.15Z" fill="#8454F5"/>
<path d="M455.63 202.4H402.22V201.45H454.67V170.44H455.63V202.4Z" fill="#8454F5"/>
<path d="M56.34 245.5C56.34 245.5 55.2 261.55 58.33 263.47C60.29 264.67 68.12 268.73 67.89 269.49C67.66 270.25 63.47 276.26 63.47 276.26C63.47 276.26 48.43 266.35 47.94 263.23C47.47 260.18 48.68 239.73 50.75 238.79C52.3 238.08 53.12 238.67 55.07 240.12C57.81 242.16 56.34 245.5 56.34 245.5Z" fill="#FF7E55"/>
<path d="M54.59 362.28C54.59 362.28 54.12 365.53 54.06 366.01C54 366.5 48.86 365.72 48.86 365.72L48.44 361.85C48.45 361.86 53.95 361.82 54.59 362.28Z" fill="#424773"/>
<path d="M54.12 365.6C54.12 365.6 55.75 367.56 57.33 368.41C58.91 369.26 61.38 369.6 62.32 370.48C62.99 371.12 64.77 373.86 58.22 373.8C51.67 373.74 48.51 374.19 47.81 373.14C47.11 372.09 48.82 365.38 48.82 365.38C48.82 365.38 50.38 365.94 54.12 365.6Z" fill="#292C47"/>
<path d="M80.34 362.28C80.34 362.28 79.87 365.53 79.81 366.01C79.75 366.49 74.61 365.72 74.61 365.72L74.19 361.85C74.2 361.86 79.7 361.82 80.34 362.28Z" fill="#424773"/>
<path d="M79.87 365.6C79.87 365.6 81.5 367.56 83.08 368.41C84.66 369.26 90.46 369.96 91.39 370.85C92.06 371.49 93.18 374.05 83.97 373.81C77.42 373.64 74.26 374.2 73.56 373.15C72.86 372.1 74.58 365.39 74.58 365.39C74.58 365.39 76.04 365.97 79.87 365.6Z" fill="#292C47"/>
<path d="M56.44 278.85C56.44 278.85 51.61 286.53 51.97 293.47C52.33 300.41 51.54 307.83 50.81 315.08C50 323.17 47.8 339.99 47.68 344.32C47.56 348.65 47.84 364.92 47.84 364.92L56.23 364.86C56.23 364.86 59.21 331.98 60.65 328.57C62.09 325.15 68.01 300.45 68.25 297.72C68.48 294.99 56.44 278.85 56.44 278.85Z" fill="#292C47"/>
<path d="M81.89 279.89C81.89 279.89 83.8 298.77 84.28 303.01C84.76 307.26 84.43 325.67 84.67 328.33C84.91 330.99 83.06 359.08 82.61 364.43L73.39 364.37C73.39 364.37 72.75 341.65 72.75 330.61C72.75 319.57 69.92 306.72 66.67 299.43C63.42 292.14 55.99 291.97 54 278.46C54.01 278.46 79.19 275.6 81.89 279.89Z" fill="#292C47"/>
<path d="M61.55 214.09C61.55 214.09 67.31 210.24 71.35 214.36C75.39 218.48 77.38 228.17 74.48 230.11C71.57 232.04 66.65 232.55 64.31 229.93C61.97 227.31 59.47 223.3 58.86 220.38C58.24 217.45 60.09 215.32 61.55 214.09Z" fill="#EEA886"/>
<path d="M72.52 230.76C72.52 230.76 72.44 234.81 72.89 235.67C73.34 236.53 64.48 236.56 64.48 236.56C64.48 236.56 63.76 231.87 62.4 227.9C61.04 223.93 72.52 230.76 72.52 230.76Z" fill="#EEA886"/>
<path d="M62.63 227.83C62.63 227.83 63.46 228.67 65.79 227.72C68.13 226.77 70.33 222.84 71.26 222.25C72.19 221.66 72.06 221.06 72.06 221.06L72.91 221.84L74 221.65C74 221.65 72.34 218.99 73.54 217.47C74.74 215.94 69.8 208.48 62.65 213.04C62.65 213.04 57.06 216.1 58.08 219.45C59.11 222.79 60.89 226.46 62.63 227.83Z" fill="#754836"/>
<path d="M73.42 235.57C73.42 235.57 73.39 233.92 72.64 233.76C71.89 233.6 64.39 232.88 63.47 233.24V235.16C63.47 235.16 65.24 236.25 73.42 235.57Z" fill="#E2D2CA"/>
<path d="M71.61 219.86C71.34 219.32 69.5 218.03 69.36 219.91C69.22 221.79 71.16 223.81 71.9 223.42C72.62 223.04 72.29 221.22 71.61 219.86Z" fill="#EEA886"/>
<path d="M59.88 215.08C59.88 215.08 51.64 217.29 62.29 227.52L59.88 215.08Z" fill="#754836"/>
<path d="M133.48 258.88L125.09 258.8C125.81 258.38 126.99 257.62 126.73 257.27C126.36 256.78 123.98 257.86 123.02 257.96C122.13 258.05 120.65 257.94 119.52 258.35L116.87 259.48L119.3 261.73C119.3 261.73 123.69 262.36 124.98 262.45C127.07 262.6 133.46 260.11 133.57 259.73C133.75 259.05 133.48 258.88 133.48 258.88Z" fill="#EEA886"/>
<path d="M84.38 237.86C79.04 236.92 73.42 235.57 73.42 235.57L63.48 235.16C63.48 235.16 54.36 237.17 50.76 238.79C50.42 238.94 50.42 246.93 49.48 249.03L52.46 255.32C52.46 255.32 54.18 267.77 54.54 273.31C54.7 275.85 50.99 297.15 50.99 297.15C50.99 297.15 54.97 298.32 61.76 299.07C68.55 299.82 85.5 298.8 85.61 298C85.72 297.2 82.33 268.16 82.18 266.65C81.95 264.34 82.85 253.68 82.85 253.68C84.13 255.4 91.52 261.84 95.13 263.89C97.7 265.35 103.99 264.46 105.85 264.27C109.86 263.86 120.95 263.07 121.17 262.67C121.34 262.43 120.53 258.39 120.07 258.24C119.66 258.1 105.35 257.4 101.76 257.58C100.3 257.66 95.55 252.35 95.55 252.35C95.55 252.35 87.32 239.18 84.38 237.86Z" fill="#FF7E55"/>
<path d="M23.23 197.66H49.51V216.71V220.72L45.5 216.71H23.23V197.66Z" fill="#FFCB55"/>
<path d="M446.46 137.04H420.92V111.5H446.46V137.04ZM421.78 136.19H445.61V112.36H421.78V136.19Z" fill="#8454F5"/>
<path d="M510.01 120.87H451.56V114.63H510.01V120.87ZM452.42 120.02H509.16V115.48H452.42V120.02Z" fill="#8454F5"/>
<path d="M510.01 149.89H420.92V143.65H510.01V149.89ZM421.78 149.04H509.16V144.5H421.78V149.04Z" fill="#8454F5"/>
<path d="M477.67 161.88H420.93V155.64H477.67V161.88ZM421.78 161.03H476.82V156.49H421.78V161.03Z" fill="#8454F5"/>
<path d="M491.15 132.77H451.57V126.53H491.15V132.77ZM452.42 131.92H490.3V127.38H452.42V131.92Z" fill="#8454F5"/>
<path d="M520.16 175.46H410.78V97.9299H520.15V175.46H520.16ZM411.63 174.6H519.3V98.7799H411.63V174.6Z" fill="#8454F5"/>
<path d="M372.22 63.21H364.04V62.25H371.27V55.03H372.22V63.21Z" fill="#8454F5"/>
<path d="M317.19 63.21H309.01V55.03H309.96V62.25H317.19V63.21Z" fill="#8454F5"/>
<path d="M309.96 8.18H309.01V0H317.19V0.95H309.96V8.18Z" fill="#8454F5"/>
<path d="M372.22 8.18H371.27V0.96H364.04V0H372.22V8.18Z" fill="#8454F5"/>
<path d="M372.22 20.3999H371.27V42.8099H372.22V20.3999Z" fill="#8454F5"/>
<path d="M309.97 20.3999H309.01V42.8099H309.97V20.3999Z" fill="#8454F5"/>
<path d="M79.22 126.04C77.29 126.04 75.72 124.47 75.72 122.54C75.72 120.61 77.29 119.04 79.22 119.04C81.15 119.04 82.72 120.61 82.72 122.54C82.72 124.47 81.15 126.04 79.22 126.04ZM79.22 119.99C77.81 119.99 76.67 121.13 76.67 122.54C76.67 123.95 77.81 125.09 79.22 125.09C80.63 125.09 81.77 123.95 81.77 122.54C81.77 121.13 80.62 119.99 79.22 119.99Z" fill="#8454F5"/>
<path d="M340.66 45.71C338.73 45.71 337.16 44.14 337.16 42.21C337.16 40.28 338.73 38.71 340.66 38.71C342.59 38.71 344.16 40.28 344.16 42.21C344.16 44.14 342.59 45.71 340.66 45.71ZM340.66 39.66C339.26 39.66 338.11 40.8 338.11 42.21C338.11 43.62 339.25 44.76 340.66 44.76C342.07 44.76 343.21 43.62 343.21 42.21C343.21 40.8 342.06 39.66 340.66 39.66Z" fill="#8454F5"/>
<path d="M455.15 171.08C453.22 171.08 451.65 169.51 451.65 167.58C451.65 165.65 453.22 164.08 455.15 164.08C457.08 164.08 458.65 165.65 458.65 167.58C458.65 169.51 457.08 171.08 455.15 171.08ZM455.15 165.03C453.74 165.03 452.6 166.17 452.6 167.58C452.6 168.99 453.74 170.13 455.15 170.13C456.56 170.13 457.7 168.99 457.7 167.58C457.7 166.17 456.56 165.03 455.15 165.03Z" fill="#8454F5"/>
<path d="M102.45 28.78H78.41V4.72998H102.45V28.78ZM79.36 27.82H101.49V5.68998H79.36V27.82Z" fill="#8454F5"/>
<path d="M90.9 11.29H89.95V22.5H90.9V11.29Z" fill="#8454F5"/>
<path d="M96.04 16.4099H84.83V17.3599H96.04V16.4099Z" fill="#8454F5"/>
<path d="M468.83 57.78H434.46V33.25H468.83V57.78ZM435.42 56.83H467.88V34.2H435.42V56.83Z" fill="#8454F5"/>
<path d="M451.65 48.1101L434.64 34.0901L435.25 33.3501L451.65 46.8701L468.05 33.3501L468.66 34.0901L451.65 48.1101Z" fill="#8454F5"/>
<path d="M456.349 43.9668L455.659 44.6206L467.992 57.6216L468.681 56.9678L456.349 43.9668Z" fill="#8454F5"/>
<path d="M446.941 43.9842L434.617 56.9941L435.307 57.6475L447.63 44.6375L446.941 43.9842Z" fill="#8454F5"/>
<path d="M162.44 82.4199L162.08 81.4899C161.76 81.4499 161.45 81.3799 161.14 81.2699L160.41 81.9499L158.29 80.4399L158.7 79.5299C158.5 79.2699 158.33 78.9999 158.19 78.7099L157.19 78.6799L156.76 76.1199L157.69 75.7599C157.73 75.4399 157.8 75.1199 157.91 74.8199L157.23 74.0899L158.74 71.9699L159.65 72.3799C159.91 72.1799 160.18 72.0099 160.47 71.8699L160.5 70.8699L163.06 70.4399L163.42 71.3699C163.74 71.4099 164.06 71.4799 164.36 71.5899L165.09 70.9099L167.21 72.4199L166.8 73.3299C167 73.5899 167.17 73.8599 167.31 74.1499L168.31 74.1799L168.74 76.7399L167.81 77.0999C167.77 77.4199 167.69 77.7399 167.59 78.0399L168.28 78.7699L166.77 80.8899L165.86 80.4799C165.61 80.6799 165.33 80.8499 165.04 80.9899L165.01 81.9899L162.44 82.4199ZM160.98 80.4499L161.19 80.5299C161.57 80.6799 161.97 80.7699 162.38 80.7999L162.6 80.8199L162.91 81.6199L164.32 81.3799L164.35 80.5199L164.56 80.4299C164.93 80.2599 165.28 80.0499 165.59 79.7899L165.76 79.6499L166.54 79.9999L167.37 78.8399L166.78 78.2199L166.86 78.0099C167.01 77.6299 167.1 77.2299 167.13 76.8299L167.15 76.6099L167.95 76.2999L167.71 74.8899L166.85 74.8599L166.76 74.6599C166.59 74.2899 166.38 73.9399 166.12 73.6299L165.98 73.4599L166.33 72.6799L165.17 71.8499L164.54 72.4399L164.33 72.3599C163.95 72.2099 163.55 72.1199 163.15 72.0899L162.93 72.0699L162.62 71.2699L161.21 71.5099L161.18 72.3699L160.97 72.4599C160.6 72.6299 160.25 72.8399 159.94 73.0999L159.77 73.2399L158.99 72.8899L158.16 74.0499L158.75 74.6699L158.67 74.8799C158.53 75.2599 158.43 75.6599 158.4 76.0699L158.38 76.2899L157.58 76.5999L157.82 78.0099L158.68 78.0399L158.77 78.2399C158.94 78.6099 159.15 78.9599 159.42 79.2699L159.56 79.4399L159.21 80.2199L160.37 81.0499L160.98 80.4499ZM162.75 79.2599C162.17 79.2599 161.6 79.0799 161.12 78.7399C159.85 77.8399 159.55 76.0699 160.46 74.7999C161.36 73.5299 163.13 73.2299 164.4 74.1399C165.02 74.5799 165.42 75.2299 165.55 75.9699C165.67 76.7099 165.5 77.4599 165.07 78.0799C164.63 78.6999 163.98 79.0999 163.24 79.2299C163.06 79.2499 162.9 79.2599 162.75 79.2599ZM162.76 74.3199C162.1 74.3199 161.45 74.6299 161.04 75.2099C160.71 75.6699 160.58 76.2299 160.68 76.7799C160.77 77.3399 161.08 77.8199 161.54 78.1499C162 78.4799 162.56 78.6099 163.11 78.5099C163.66 78.4199 164.15 78.1099 164.48 77.6499C164.81 77.1899 164.94 76.6299 164.84 76.0799C164.75 75.5199 164.44 75.0399 163.98 74.7099C163.61 74.4499 163.18 74.3199 162.76 74.3199Z" fill="#8454F5"/>
<path d="M142.59 85.4101L141.79 83.32C140.93 83.22 140.09 83.0301 139.28 82.75L137.65 84.28L133.23 81.13L134.14 79.09C133.61 78.42 133.15 77.6901 132.78 76.9101L130.55 76.84L129.65 71.49L131.74 70.6901C131.84 69.8301 132.03 68.9901 132.31 68.18L130.78 66.5501L133.92 62.1301L135.96 63.0401C136.63 62.5001 137.36 62.05 138.14 61.68L138.21 59.4501L143.56 58.55L144.36 60.64C145.22 60.74 146.06 60.93 146.87 61.21L148.5 59.68L152.92 62.8301L152.01 64.8701C152.55 65.5401 153 66.2701 153.37 67.0501L155.6 67.1201L156.5 72.4701L154.41 73.27C154.31 74.13 154.12 74.97 153.83 75.78L155.36 77.4101L152.21 81.8301L150.17 80.92C149.5 81.46 148.77 81.91 147.99 82.28L147.92 84.5101L142.59 85.4101ZM139.06 81.6501L139.34 81.7601C140.25 82.1101 141.2 82.3201 142.17 82.4101L142.47 82.4401L143.2 84.35L147.01 83.71L147.07 81.67L147.34 81.5501C148.23 81.1501 149.06 80.6401 149.8 80.0101L150.03 79.82L151.9 80.6501L154.14 77.5L152.74 76.0101L152.85 75.7301C153.2 74.8201 153.42 73.8701 153.5 72.9001L153.53 72.6L155.44 71.8701L154.8 68.06L152.76 68L152.64 67.7301C152.24 66.8401 151.72 66.01 151.1 65.27L150.91 65.0401L151.74 63.17L148.59 60.93L147.1 62.3301L146.82 62.2201C145.91 61.8701 144.96 61.66 143.99 61.57L143.69 61.5401L142.96 59.6301L139.15 60.2701L139.08 62.3101L138.81 62.43C137.92 62.83 137.09 63.3401 136.35 63.9701L136.12 64.1601L134.25 63.3301L132.01 66.4801L133.41 67.9701L133.3 68.25C132.95 69.15 132.74 70.1101 132.65 71.0801L132.62 71.38L130.71 72.1101L131.35 75.92L133.39 75.9801L133.51 76.25C133.91 77.14 134.43 77.97 135.05 78.71L135.24 78.9401L134.41 80.81L137.56 83.0501L139.06 81.6501ZM143.07 78.1501C141.83 78.1501 140.58 77.7801 139.5 77.0101C136.73 75.0401 136.08 71.1801 138.05 68.4001C140.02 65.6301 143.88 64.98 146.65 66.95C149.42 68.92 150.07 72.7801 148.1 75.5501C146.9 77.2501 145 78.1501 143.07 78.1501ZM143.08 66.77C141.45 66.77 139.84 67.53 138.82 68.96C138.01 70.1 137.69 71.48 137.93 72.85C138.16 74.22 138.91 75.4301 140.05 76.2301C142.39 77.9001 145.66 77.35 147.33 75C148.14 73.87 148.45 72.4801 148.22 71.1101C147.99 69.7401 147.24 68.5301 146.1 67.7301C145.19 67.0801 144.13 66.77 143.08 66.77Z" fill="#8454F5"/>
<path d="M17.79 90.4301C7.98 90.4301 0 82.4501 0 72.6401H0.95C0.95 81.9301 8.5 89.4801 17.79 89.4801C27.08 89.4801 34.63 81.9301 34.63 72.6401C34.63 63.3601 27.08 55.8001 17.79 55.8001V54.8501C27.6 54.8501 35.58 62.8301 35.58 72.6401C35.59 82.4501 27.6 90.4301 17.79 90.4301ZM17.79 87.9601C9.34 87.9601 2.47 81.0901 2.47 72.6401C2.47 64.1901 9.34 57.3201 17.79 57.3201C26.24 57.3201 33.11 64.1901 33.11 72.6401H32.16C32.16 64.7201 25.72 58.2701 17.79 58.2701C9.87 58.2701 3.42 64.7101 3.42 72.6401C3.43 80.5601 9.87 87.0001 17.79 87.0001V87.9601Z" fill="#8454F5"/>
<path d="M15.61 78.5301L9.2 72.1101L9.87 71.4401L15.61 77.1801L25.72 67.0801L26.39 67.7501L15.61 78.5301Z" fill="#8454F5"/>
<path d="M393.55 290.8H258.38H123.22L93.64 401.37H259.27H423.13L393.55 290.8Z" fill="url(#paint11_linear_1_306)"/>
<path d="M133.45 310.2H150.06C150.75 310.2 151.28 310.74 151.15 311.32L149.54 318.54C149.44 318.99 148.98 319.31 148.45 319.31H131.56C130.85 319.31 130.32 318.75 130.48 318.16L132.37 310.94C132.48 310.5 132.93 310.2 133.45 310.2Z" fill="white"/>
<path d="M157.68 310.2H170.23L168.56 319.31H155.77L157.68 310.2Z" fill="white"/>
<path d="M176.51 310.2H189.06L187.75 319.31L174.96 319.32L176.51 310.2Z" fill="white"/>
<path d="M195.34 310.2H207.9L206.94 319.31H194.15L195.34 310.2Z" fill="white"/>
<path d="M214.18 310.2H226.73L226.13 319.31H213.34L214.18 310.2Z" fill="white"/>
<path d="M233.01 310.2H245.57L245.33 319.31L232.53 319.32L233.01 310.2Z" fill="white"/>
<path d="M383.72 310.2H364.89L366.92 319.31H386.11L383.72 310.2Z" fill="white"/>
<path d="M358.61 310.2H346.05L347.73 319.31H360.52L358.61 310.2Z" fill="white"/>
<path d="M339.78 310.2H327.22L328.53 319.31L341.33 319.32L339.78 310.2Z" fill="white"/>
<path d="M320.94 310.2H308.39L309.34 319.31H322.14L320.94 310.2Z" fill="white"/>
<path d="M302.11 310.2H289.55L290.15 319.31H302.94L302.11 310.2Z" fill="white"/>
<path d="M283.28 310.2H270.72L270.96 319.31L283.75 319.32L283.28 310.2Z" fill="white"/>
<path d="M251.84 310.2H264.4L264.61 319.31H251.84V310.2Z" fill="white"/>
<path d="M127.93 326.1H154.16L152.67 335.5H125.93L127.93 326.1Z" fill="white"/>
<path d="M387.82 326.1H355.39L357.23 335.5H390.28L387.82 326.1Z" fill="white"/>
<path d="M348.9 326.1H335.93L337.41 335.5H350.62L348.9 326.1Z" fill="white"/>
<path d="M329.44 326.1H316.47L317.58 335.5H330.8L329.44 326.1Z" fill="white"/>
<path d="M309.98 326.1H297.01L297.75 335.5H310.97L309.98 326.1Z" fill="white"/>
<path d="M290.53 326.1H277.55L277.92 335.5H291.14L290.53 326.1Z" fill="white"/>
<path d="M124.01 342.86H150.83L148.87 352.2H121.56L124.01 342.86Z" fill="white"/>
<path d="M157.54 342.86H170.95L169.36 352.2H155.7L157.54 342.86Z" fill="white"/>
<path d="M177.65 342.86H191.06H278.23L278.61 352.2H176.19L177.65 342.86Z" fill="white"/>
<path d="M284.95 342.86H298.36L299.09 352.2H285.43L284.95 342.86Z" fill="white"/>
<path d="M305.06 342.86H318.47L319.57 352.2H305.92L305.06 342.86Z" fill="white"/>
<path d="M325.18 342.86H338.59L340.06 352.2H326.4L325.18 342.86Z" fill="white"/>
<path d="M345.3 342.86H358.71L360.54 352.2H346.89L345.3 342.86Z" fill="white"/>
<path d="M365.41 342.86H392.24L394.68 352.2H367.37L365.41 342.86Z" fill="white"/>
<path d="M271.09 326.1H258.23V335.5H271.34L271.09 326.1Z" fill="white"/>
<path d="M251.64 326.1H238.66L238.29 335.5H251.51L251.64 326.1Z" fill="white"/>
<path d="M232.18 326.1H219.21L218.47 335.5H231.68L232.18 326.1Z" fill="white"/>
<path d="M212.72 326.1H199.75L198.64 335.5H211.86L212.72 326.1Z" fill="white"/>
<path d="M193.26 326.1H180.29L178.81 335.5H192.03L193.26 326.1Z" fill="white"/>
<path d="M173.8 326.1H160.83L158.98 335.5H172.2L173.8 326.1Z" fill="white"/>
<path d="M134.06 304.47L136.2 296.33H142.29L140.3 304.47H134.06Z" fill="white"/>
<path d="M148.39 296.33H160.58L158.88 304.47H146.47L148.39 296.33Z" fill="white"/>
<path d="M166.68 296.33H178.87L177.48 304.47H165.08L166.68 296.33Z" fill="white"/>
<path d="M184.97 296.33H197.16L196.09 304.47H183.69L184.97 296.33Z" fill="white"/>
<path d="M203.25 296.33H215.45L214.7 304.47H202.3L203.25 296.33Z" fill="white"/>
<path d="M221.54 296.33H233.74L233.31 304.47H220.9L221.54 296.33Z" fill="white"/>
<path d="M239.83 296.33H252.03L251.92 304.47H239.51L239.83 296.33Z" fill="white"/>
<path d="M258.12 296.33H270.31L270.53 304.47H258.12V296.33Z" fill="white"/>
<path d="M276.41 296.33H288.6L289.14 304.47H276.73L276.41 296.33Z" fill="white"/>
<path d="M294.7 296.33H306.89L307.75 304.47H295.34L294.7 296.33Z" fill="white"/>
<path d="M312.99 296.33H325.18L326.35 304.47H313.95L312.99 296.33Z" fill="white"/>
<path d="M331.28 296.33H343.47L344.96 304.47H332.56L331.28 296.33Z" fill="white"/>
<path d="M349.57 296.33H361.76L363.57 304.47H351.17L349.57 296.33Z" fill="white"/>
<path d="M367.86 296.33H380.05L382.18 304.47H369.77L367.86 296.33Z" fill="white"/>
<path d="M414.52 409.97H102.25C97.5 409.97 93.64 406.12 93.64 401.36H423.13C423.13 406.12 419.27 409.97 414.52 409.97Z" fill="url(#paint12_linear_1_306)"/>
<path d="M296.69 365.64C296.37 363.69 294.69 362.27 292.71 362.27H258.39H224.07C222.1 362.27 220.41 363.7 220.09 365.64L215.8 391.59C215.39 394.05 217.29 396.28 219.78 396.28H258.39H297C299.49 396.28 301.38 394.05 300.98 391.59L296.69 365.64Z" fill="#4D78EB"/>
<path d="M177.56 142.3H149.62V145.16H177.56V142.3Z" fill="#E0E0E0"/>
<path d="M205.56 163.84H185.39V166.7H205.56V163.84Z" fill="#E0E0E0"/>
<path d="M222.1 163.84H208.71V166.7H222.1V163.84Z" fill="#1487E3"/>
<path d="M163.33 218.02H149.94V220.88H163.33V218.02Z" fill="#1487E3"/>
<path d="M257.06 163.84H224.74V166.7H257.06V163.84Z" fill="#E0E0E0"/>
<path d="M170.71 207.17H149.94V210.03H170.71V207.17Z" fill="#E0E0E0"/>
<path d="M191.58 228.79H178.9V231.65H191.58V228.79Z" fill="#E0E0E0"/>
<path d="M175.06 228.79H149.94V231.65H175.06V228.79Z" fill="#1487E3"/>
<path d="M163.8 239.56H149.94V242.42H163.8V239.56Z" fill="#E0E0E0"/>
<path d="M202.84 142.3H183V145.16H202.84V142.3Z" fill="#78C2FF"/>
<path d="M202.84 174.61H183V177.47H202.84V174.61Z" fill="#1487E3"/>
<path d="M181.57 185.38H173.09V188.24H181.57V185.38Z" fill="#E0E0E0"/>
<path d="M183.65 196.31H164.61V199.17H183.65V196.31Z" fill="#78C2FF"/>
<path d="M212.81 196.31H186.53V199.17H212.81V196.31Z" fill="#1487E3"/>
<path d="M169.78 185.46H149.94V188.32H169.78V185.46Z" fill="#1487E3"/>
<path d="M161.71 196.31H149.94V199.17H161.71V196.31Z" fill="#1487E3"/>
<path d="M196.66 185.46H185.56V188.32H196.66V185.46Z" fill="#FF8761"/>
<path d="M161.38 250.33H150.28V253.19H161.38V250.33Z" fill="#FF8761"/>
<path d="M169.7 163.84H149.86V166.7H169.7V163.84Z" fill="#78C2FF"/>
<path d="M187.25 218.02H167.41V220.88H187.25V218.02Z" fill="#78C2FF"/>
<path d="M187.49 239.56H167.65V242.42H187.49V239.56Z" fill="#78C2FF"/>
<path d="M222.73 239.56H202.89V242.42H222.73V239.56Z" fill="#78C2FF"/>
<path d="M178.14 174.61H149.86V177.47H178.14V174.61Z" fill="#78C2FF"/>
<path d="M302.21 142.3H282.37V145.16H302.21V142.3Z" fill="#78C2FF"/>
<path d="M231.55 250.33H211.71V253.19H231.55V250.33Z" fill="#78C2FF"/>
<path d="M321.66 142.3H308.38V145.16H321.66V142.3Z" fill="#78C2FF"/>
<path d="M366.58 153.07H353.3V155.93H366.58V153.07Z" fill="#78C2FF"/>
<path d="M233.45 142.3H208.18V145.16H233.45V142.3Z" fill="#1487E3"/>
<path d="M331.92 153.07H306.65V155.93H331.92V153.07Z" fill="#1487E3"/>
<path d="M300.93 163.84H275.66V166.7H300.93V163.84Z" fill="#1487E3"/>
<path d="M268.02 174.61H242.75V177.47H268.02V174.61Z" fill="#1487E3"/>
<path d="M322.08 163.84H304.11V166.7H322.08V163.84Z" fill="#78C2FF"/>
<path d="M277.42 142.3H252.15V145.16H277.42V142.3Z" fill="#FF8761"/>
<path d="M238.13 174.61H223.31V177.47H238.13V174.61Z" fill="#FF8761"/>
<path d="M226.53 218.18H211.71V221.04H226.53V218.18Z" fill="#FF8761"/>
<path d="M247.38 142.3H238.13V145.16H247.38V142.3Z" fill="#E0E0E0"/>
<path d="M217.43 174.61H208.18V177.47H217.43V174.61Z" fill="#E0E0E0"/>
<path d="M347.27 153.07H338.02V155.93H347.27V153.07Z" fill="#E0E0E0"/>
<path d="M164.09 153.07H149.62V155.93H164.09V153.07Z" fill="#1487E3"/>
<path d="M199.67 207.25H188.24V210.11H199.67V207.25Z" fill="#1487E3"/>
<path d="M172.32 153.07H167.65V155.93H172.32V153.07Z" fill="#1487E3"/>
<path d="M302.2 153.07H263.58V155.93H302.2V153.07Z" fill="#E0E0E0"/>
<path d="M265.14 239.56H226.52V242.42H265.14V239.56Z" fill="#E0E0E0"/>
<path d="M180.53 153.07H175.76V155.93H180.53V153.07Z" fill="#FF8761"/>
<path d="M260.02 153.07H247.38V155.93H260.02V153.07Z" fill="#1487E3"/>
<path d="M272.65 163.84H260.01V166.7H272.65V163.84Z" fill="#FF8761"/>
<path d="M207.68 250.33H195.04V253.19H207.68V250.33Z" fill="#FF8761"/>
<path d="M244.04 153.07H217.15V155.93H244.04V153.07Z" fill="#1487E3"/>
<path d="M207.83 218.18H192.12V221.04H207.83V218.18Z" fill="#1487E3"/>
<path d="M198.97 239.56H191.11V242.42H198.97V239.56Z" fill="#1487E3"/>
<path d="M213.33 153.07H204.08V155.93H213.33V153.07Z" fill="#78C2FF"/>
<path d="M182.19 163.84H172.94V166.7H182.19V163.84Z" fill="#FF8761"/>
<path d="M184.04 207.25H174.79V210.11H184.04V207.25Z" fill="#FF8761"/>
<path d="M200.55 153.07H184.43V155.93H200.55V153.07Z" fill="#1487E3"/>
<g opacity="0.76">
<path opacity="0.76" d="M420.44 267.25H303.55C301.33 267.25 299.54 265.45 299.54 263.24V182.21C299.54 179.99 301.34 178.2 303.55 178.2H420.43C422.65 178.2 424.44 180 424.44 182.21V263.24C424.45 265.45 422.65 267.25 420.44 267.25Z" fill="white"/>
</g>
<path d="M410.96 230.21H390.84C389.99 230.21 389.3 229.52 389.3 228.67V225.56C389.3 224.71 389.99 224.02 390.84 224.02H410.96C411.81 224.02 412.5 224.71 412.5 225.56V228.67C412.5 229.52 411.81 230.21 410.96 230.21Z" fill="#4AAFFF"/>
<path d="M410.96 241.8H390.84C389.99 241.8 389.3 241.11 389.3 240.26V237.15C389.3 236.3 389.99 235.61 390.84 235.61H410.96C411.81 235.61 412.5 236.3 412.5 237.15V240.26C412.5 241.11 411.81 241.8 410.96 241.8Z" fill="#4AAFFF"/>
<path d="M410.96 253.38H390.84C389.99 253.38 389.3 252.69 389.3 251.84V248.73C389.3 247.88 389.99 247.19 390.84 247.19H410.96C411.81 247.19 412.5 247.88 412.5 248.73V251.84C412.5 252.7 411.81 253.38 410.96 253.38Z" fill="#4AAFFF"/>
<path d="M378.08 210.22C372.92 195.79 359.12 186.92 344.58 187.36C341.06 187.47 337.5 188.12 334 189.37C323.41 193.16 315.82 201.59 312.7 211.56C310.54 218.47 310.52 226.11 313.15 233.45C313.41 234.18 313.69 234.9 314 235.6C315.38 238.78 317.19 241.65 319.34 244.18C328.36 254.79 343.33 259.27 357.22 254.3C375.15 247.88 384.49 228.15 378.08 210.22ZM354.32 246.17C343.91 249.89 332.68 246.53 325.92 238.58C324.31 236.69 322.95 234.53 321.91 232.14C321.68 231.61 321.47 231.08 321.27 230.53C319.3 225.03 319.31 219.3 320.93 214.12C323.27 206.65 328.96 200.32 336.9 197.48C339.52 196.54 342.19 196.05 344.83 195.97C355.73 195.64 366.07 202.29 369.94 213.11C374.76 226.57 367.76 241.36 354.32 246.17Z" fill="#4AAFFF"/>
<path d="M320.94 214.13L312.7 211.56C315.82 201.59 323.41 193.16 334 189.37C337.5 188.12 341.06 187.47 344.58 187.36L344.84 195.99C342.2 196.07 339.53 196.56 336.91 197.5C328.97 200.33 323.27 206.66 320.94 214.13Z" fill="#1A598C"/>
<path d="M321.91 232.15L314 235.59C313.7 234.89 313.41 234.17 313.15 233.44C310.53 226.1 310.54 218.46 312.7 211.55L320.94 214.12C319.32 219.3 319.31 225.03 321.28 230.53C321.47 231.08 321.68 231.62 321.91 232.15Z" fill="#2273B5"/>
<path d="M319.34 244.17C317.19 241.64 315.38 238.77 314 235.59L321.91 232.15C322.94 234.53 324.3 236.69 325.92 238.59L319.34 244.17Z" fill="#3788CC"/>
<path d="M357.12 242.28C357.12 242.28 355.45 239.36 358.1 231.52C360.66 223.94 369.53 224.63 372.35 229.48C375.17 234.33 374.22 237.35 370.07 242.83C365.91 248.32 358.84 244.79 357.12 242.28Z" fill="#EEA886"/>
<path d="M377.72 377.04C377.72 377.04 378.16 380.26 378.21 380.74C378.26 381.22 383.09 380.45 383.09 380.45L383.48 376.62C383.48 376.63 378.32 376.59 377.72 377.04Z" fill="#EEA886"/>
<path d="M378.16 380.34C378.16 380.34 376.63 382.28 375.15 383.12C373.67 383.97 371.35 384.3 370.47 385.17C369.84 385.8 368.17 388.52 374.31 388.46C380.45 388.41 383.41 388.84 384.07 387.8C384.73 386.76 383.12 380.11 383.12 380.11C383.12 380.11 381.62 380.54 378.16 380.34Z" fill="#414773"/>
<path d="M344.3 377.04C344.3 377.04 344.74 380.26 344.79 380.74C344.84 381.22 349.67 380.45 349.67 380.45L350.06 376.62C350.06 376.63 344.9 376.59 344.3 377.04Z" fill="#EEA886"/>
<path d="M344.74 380.34C344.74 380.34 343.21 382.28 341.73 383.12C340.25 383.97 334.81 384.66 333.93 385.53C333.3 386.16 332.25 388.7 340.89 388.46C347.03 388.29 349.99 388.84 350.65 387.8C351.31 386.76 349.7 380.11 349.7 380.11C349.7 380.11 347.8 380.46 344.74 380.34Z" fill="#414773"/>
<path d="M376.09 296.95C376.09 296.95 378.56 304.64 378.24 311.27C377.91 317.9 379.52 325.15 380.18 332.07C380.91 339.79 383.91 358.06 384.01 362.19C384.12 366.32 383.55 379.5 383.55 379.5L377.56 379.64C377.56 379.64 372.53 347.7 371.22 344.44C369.92 341.18 363.45 317.95 363.23 315.34C363.01 312.73 376.09 296.95 376.09 296.95Z" fill="#2D314F"/>
<path d="M351.24 296.15C351.24 296.15 347.6 316.48 347.17 320.54C346.74 324.6 346.45 340.17 346.23 342.7C346.01 345.23 344.78 375.87 343.62 379.64H350.3C350.3 379.64 357.16 357.37 357.16 346.83C357.16 336.29 361.7 323.92 364.64 316.97C367.57 310.02 374.29 309.85 376.09 296.95C376.09 296.95 353.68 292.05 351.24 296.15Z" fill="#2D314F"/>
<path d="M359.54 244.35C359.54 244.35 360.29 246.54 359.54 248.11C358.79 249.67 369.17 248.74 369.17 248.74C369.17 248.74 368.7 245.5 370.06 242.84C371.42 240.18 359.54 244.35 359.54 244.35Z" fill="#EEA886"/>
<path d="M376.57 298.62C376.57 298.62 372.83 302.46 350.9 298.02L351.23 296.14L376.16 297.08L376.57 298.62Z" fill="#2B3B57"/>
<path d="M357.97 248.62C357.97 248.62 354.13 249.01 353.04 249.22C351.94 249.43 344.57 247.9 343.05 247.74C341.54 247.58 335.08 243.16 334.87 242.64C334.66 242.12 330.94 232.71 330.74 230.67C330.53 228.63 327.12 229.68 327.41 231.09C327.96 233.71 328.66 240.08 329.05 241.93C329.47 243.92 330.58 248.44 331.21 248.99C331.84 249.55 337.65 253.96 343.33 255.84C349.02 257.72 353.3 260.49 353.3 260.49H381.34C381.34 260.49 392.24 244.9 392.48 242.55C392.71 240.2 384.86 224.59 383.3 222.63C381.73 220.67 379.47 223.27 379.47 223.27C379.47 223.27 384.16 237.04 384.79 238.99C385.42 240.95 379.33 249.55 377.66 249.57C375.99 249.6 371.7 249.05 369.8 248.97C367.89 248.89 365.88 248.06 365.88 248.06L357.97 248.62Z" fill="#EEA886"/>
<path d="M345.89 259.03C345.89 259.03 349.32 261.31 349.64 265.23C349.95 269.15 351.21 275.33 351.83 277.44C352.46 279.55 351.28 294.9 351.12 295.99C350.96 297.09 372.81 299.69 376.17 297.09C376.17 297.09 377.11 282.76 377.5 278.69C377.89 274.62 379.77 264.76 380.4 263.43C381.03 262.1 388.62 251.45 388.93 250.04C388.93 250.04 385 243.78 382.18 243.7C382.18 243.7 377.7 248.95 376.25 249.18C374.79 249.41 365.85 247.78 365.84 247.76C365.84 247.76 364.86 249.09 359.67 247.52C359.67 247.52 353.49 248.22 352.48 248.35C351.26 248.51 342.8 247.29 342.8 247.29C342.8 247.29 339.4 253.02 340 255.92L345.89 259.03Z" fill="#FFC655"/>
<path d="M330.94 231.9C330.94 231.9 330.17 228.27 331.1 227.23C331.63 226.64 332.89 225.07 333 224.84C333.12 224.61 334.47 223.83 334.47 223.46C334.47 223.09 333.14 222.62 331.99 223.69C330.84 224.76 330.12 224.99 329.66 224.87C329.2 224.75 328.54 220.92 328.48 219.97C328.42 219.02 328.06 216.51 327.46 216.68C326.87 216.85 326.89 217.95 326.89 217.95C326.89 217.95 326.2 216.05 325.74 216.42C325.28 216.79 325.34 217.72 325.34 217.72C325.34 217.72 324.47 216.65 324.24 217.43C324.01 218.21 324.24 218.9 324.24 218.9C324.24 218.9 323.35 218.41 323.29 219.62C323.23 220.83 323.55 224.38 324.18 225.65C324.81 226.92 327.19 230.24 327.47 231.53C327.75 232.82 330.94 231.9 330.94 231.9Z" fill="#EEA886"/>
<path d="M380.23 225.52C380.23 225.52 377.62 221.14 376.73 220.74C375.84 220.35 374.59 220.13 373.49 219.34C372.39 218.56 370.95 217.91 371.02 217.64C371.1 217.38 372.39 217.48 373.77 218.08C375.15 218.68 375.76 218.39 375.89 218.08C376.02 217.77 375.15 215.56 374.74 215.03C374.32 214.51 371.35 211.52 371.84 211.07C372.34 210.63 374.27 212.27 374.58 212.61C374.58 212.61 373.04 209.38 373.64 209.22C374.24 209.06 375.36 210.21 375.36 210.21C375.36 210.21 375.23 207.44 378.2 211.93C378.2 211.93 377.57 210.44 378.49 210.94C379.4 211.44 380.29 214.23 380.58 215.64C380.87 217.05 382.17 221.54 383.28 222.62C384.41 223.72 380.23 225.52 380.23 225.52Z" fill="#EEA886"/>
<path d="M370.06 242.84C370.06 242.84 368.69 242.96 365.76 241.95C362.84 240.94 362.62 235.83 361.99 236.44C360.7 237.68 359.48 236.82 358.99 236.09C358.99 236.09 360.42 234.21 359.76 233.31C359.1 232.41 358.02 231.75 358.02 231.75C358.02 231.75 360.08 221.84 369.43 226.36C380.4 231.63 370.06 242.84 370.06 242.84Z" fill="#353A3D"/>
<path d="M359.54 248.11L359.87 246.68C359.87 246.68 365.84 246.56 369.1 247.03L369.44 248.74C369.45 248.74 365.27 250.63 359.54 248.11Z" fill="#D4D8E8"/>
<path d="M361.02 235.18C361.56 234.28 363.57 233.67 363.8 236.22C363.98 238.2 360.22 240.36 360.18 238.52C360.15 236.68 360.66 235.78 361.02 235.18Z" fill="#EEA886"/>
<path d="M330.8 231.07C330.8 231.07 328.65 231.12 327.6 232.07C327.6 232.07 327.53 232.67 327.77 233.14C327.77 233.14 329.64 232.27 331.07 232.11C331.07 232.11 331.05 231.32 330.8 231.07Z" fill="#E55353"/>
<path d="M328.26 231.61C328.06 232.08 328.28 232.62 328.75 232.82C329.22 233.02 329.76 232.8 329.96 232.33C330.16 231.86 329.94 231.32 329.47 231.12C329 230.92 328.46 231.14 328.26 231.61Z" fill="#353A3D"/>
<path d="M275.35 155.05C275.35 155.05 278.43 160.27 279.73 161.12C281.5 162.28 280.39 163.45 279.55 163.45C278.71 163.45 274.43 163.76 273.49 162.69C272.55 161.62 272.08 158.41 271.2 157.57C270.32 156.73 269.42 153.4 271.63 152.59C273.58 151.87 275.35 155.05 275.35 155.05Z" fill="#6069A8"/>
<path d="M274.01 152.75C274.01 152.75 277.54 158.86 278.14 159.77C278.75 160.67 277 160.67 275.91 160.24C274.82 159.81 272.09 155.43 271.7 154.63C271.23 153.68 271.62 152.59 271.62 152.59L274.01 152.75Z" fill="#202338"/>
<path d="M270.44 156.04L271.25 162.31L271.69 162.33L271.55 157.82L270.44 156.04Z" fill="#6069A8"/>
<path d="M244.81 155.05C244.81 155.05 247.89 160.27 249.19 161.12C250.96 162.28 249.85 163.45 249.01 163.45C248.17 163.45 243.89 163.76 242.95 162.69C242.01 161.62 241.54 158.41 240.66 157.57C239.78 156.73 238.85 153.31 241.09 152.59C243.05 151.95 244.81 155.05 244.81 155.05Z" fill="#6069A8"/>
<path d="M243.66 152.77C243.66 152.77 247 158.87 247.61 159.77C248.22 160.67 246.46 160.67 245.38 160.24C244.29 159.81 241.56 155.43 241.17 154.63C240.7 153.68 241.09 152.59 241.09 152.59L243.66 152.77Z" fill="#202338"/>
<path d="M239.9 156.04L240.72 162.31L241.15 162.33L241.02 157.82L239.9 156.04Z" fill="#6069A8"/>
<path d="M231.15 107.55L259.01 120.25C259.01 120.25 262.12 121.26 262.47 124.71C263.56 135.49 271.62 152.59 271.62 152.59C274.21 153.85 274.01 152.76 274.01 152.76C272.38 147.53 270.39 125.96 269.69 117.28C269.54 115.44 269.45 114.19 269.43 113.78C269.42 113.51 269.12 113.15 268.6 112.73C264.78 109.63 249.04 103.21 249.04 103.21C237.23 102.91 231.15 107.55 231.15 107.55Z" fill="#202338"/>
<path d="M225.9 113C226.76 120.53 237.51 119.67 237.51 119.67H250.54C250.54 119.67 247.12 127.29 245.79 133.71C244.39 140.53 241.08 152.59 241.08 152.59C241.08 152.59 241.3 153 243.65 152.77C243.65 152.77 253.88 132.38 257.79 127.26C258.63 126.16 261.05 120.17 261.46 116.6C261.6 115.4 261.51 114.47 261.07 114.09C260.62 113.71 259.58 113 258.19 112.12C254.11 109.55 247.02 105.58 243.07 104.7C237.78 103.51 229.42 101.28 229.42 101.28C229.42 101.28 225.04 105.47 225.9 113Z" fill="#202338"/>
<path d="M234.77 54.9899C234.77 54.9899 232.82 51.2899 233.77 47.3399C234.72 43.3999 238.38 39.4699 243.74 41.2699C249.1 43.0699 253.43 47.2399 250.22 52.0499C247.01 56.8599 253.13 59.0299 251.57 61.3199C250.01 63.6099 250.6 65.9999 251.26 66.5299C251.92 67.0599 254.05 68.9599 253.81 71.2099C253.58 73.4599 243.42 64.6599 243.42 64.6599C243.42 64.6599 237.88 53.5499 234.77 54.9899Z" fill="#464240"/>
<path d="M251.09 102.31C251.09 102.31 250.28 106.23 229.47 101.28C229.48 101.28 236.45 98.96 251.09 102.31Z" fill="#EB4747"/>
<path d="M229.24 102.38C228.92 103 228.59 103.61 228.27 104.23C235.88 104.45 243.48 104.67 251.09 104.9C249.89 100.87 250.28 95.41 250.49 91.27C250.75 86.21 253.54 82.69 253.24 77.58C254.74 77.82 255 77.87 256.51 78.1C254.2 71.53 253.42 68.28 246.26 65.75C243.93 64.93 242.4 64.76 239.87 64.97C231.58 65.65 229.08 65.75 225 73.27C231.38 74.29 230.33 76.57 232.26 82.92C233.2 86.01 234.19 89.46 233.68 92.73C233.19 95.93 229.24 99.45 229.24 102.38Z" fill="#325BB3"/>
<path d="M242.47 67.3401C239.08 66.7001 239.8 64.8101 239.8 64.8101C239.8 64.8101 239.96 63.7401 240.02 62.4001C240.04 62.0601 240.04 61.6901 240.04 61.3201C240.04 60.7601 240.01 60.1901 239.95 59.6501C239.67 57.3701 246.11 58.7301 246.11 58.7301C246.11 58.7301 245.74 63.3401 246.63 64.7201C247.52 66.1001 245.87 67.9801 242.47 67.3401Z" fill="#EEA886"/>
<path d="M236 64.79C236 64.79 242.85 72.69 245.38 74.53C245.38 74.53 248.29 71.9 246.5 64.96C246.49 64.97 243.19 63.31 236 64.79Z" fill="#EEA886"/>
<path d="M236.19 45.7701C236.19 45.7701 232.63 52.6201 236.16 59.1101C239.69 65.6001 246.62 56.2801 247.06 55.1901C247.51 54.1001 249.88 47.9201 245.16 46.0401C240.43 44.1601 237.19 43.9101 236.19 45.7701Z" fill="#EEA886"/>
<path d="M237.37 48.1999C237.37 48.1999 234.92 51.4099 234.63 53.7899C234.63 53.7899 233.66 49.2999 236.41 44.9799C239.16 40.6699 246.17 44.7699 247.11 46.4999C248.05 48.2199 250.8 49.7399 246.18 57.1499C246.18 57.1499 237.87 51.3799 237.37 48.1999Z" fill="#464240"/>
<path d="M243.05 59.79C243.05 59.79 242.43 61.14 240.02 62.39C240.04 62.05 240.04 61.68 240.04 61.31C240.04 61.32 241.68 61.12 243.05 59.79Z" fill="#A77860"/>
<path d="M207.12 96.2199C207.12 96.2199 205.43 96.9699 204.63 96.6299C203.83 96.2899 202.59 96.2199 202.2 96.2199C201.68 96.2199 200.04 95.6399 200.07 96.2699C200.1 96.9099 202.73 97.3599 203.27 97.5599C203.81 97.7599 201.66 98.9399 201.46 99.4699C201.26 99.9999 203.68 103.44 205.05 102.46C206.42 101.48 207.16 99.5199 207.44 99.3899C207.72 99.2699 208.47 98.7199 208.47 98.7199L207.12 96.2199Z" fill="#EEA886"/>
<path d="M201.71 99.1599C201.71 99.1599 197.75 102.45 197.68 102.89C197.62 103.33 197.83 103.54 198.21 103.25C198.59 102.96 202.14 100.19 202.14 100.19C202.14 100.19 198.17 104.88 198.03 105.23C197.95 105.43 198.33 105.86 198.55 105.72C198.77 105.58 203 101.17 203 101.17C203 101.17 199.3 105.56 199.28 105.88C199.26 106.17 199.71 106.48 200.01 106.17C200.31 105.86 203.99 101.99 203.99 101.99C203.99 101.99 201.52 105.36 201.67 105.65C201.76 105.83 202.08 106.21 202.69 105.32C203.3 104.43 204.97 102.49 204.97 102.49L201.71 99.1599Z" fill="#EEA886"/>
<path d="M249.18 119.67H237.51C237.51 119.67 226.76 120.53 225.9 113C225.04 105.47 229.44 101.29 229.44 101.29C229.44 101.29 235.12 102.8 240.08 104C242.56 103.47 245.55 103.13 249.05 103.22C249.05 103.22 270.07 110.17 269.44 113.82C269.43 113.82 260.63 109.11 249.18 119.67Z" fill="#FF7E55"/>
<path d="M241.59 106.63L263.84 106.3L252.6 112L241.59 106.63Z" fill="#5E5853"/>
<path d="M248.5 103.78C248.5 103.78 243.49 105.72 237.36 103.97L237.07 101.68L249.7 102.38L248.5 103.78Z" fill="#325BB3"/>
<path d="M252.6 112L241.59 107.74V106.63L253.47 110.91L252.6 112Z" fill="#91887F"/>
<path d="M248.42 104.84C248.36 105.66 249.19 106.25 249.95 105.93L251.24 105.38C251.63 105.21 251.85 104.8 251.79 104.39C251.25 101.02 250.1 87.92 251.79 85.68C252.41 84.85 252.8 84.12 253.02 83.48C254.13 86.35 255.52 90.05 256.07 92.04L266.58 106.02L270.11 106.91C265.71 96.31 262.18 90.7 262.18 90.7C261.49 88.85 259.52 83.26 257.77 78.28C256.67 75.14 255.65 72.24 255.11 70.68C254.83 69.89 254.29 69.22 253.57 68.79C251.94 67.82 249.23 66.28 246.77 65.09C246.76 65.09 246.75 65.08 246.74 65.08C246.66 65.04 246.58 65 246.5 64.97C251.18 72.05 249.35 92.04 248.43 104.82C248.42 104.82 248.42 104.83 248.42 104.84Z" fill="#EDDAD3"/>
<path d="M231.05 65.57C229.55 65.8 225.84 69.41 223.86 73.05C221.61 77.21 219.32 81.94 217.6 83.49C214.44 86.35 205.6 96.47 205.18 96.22C205.02 96.13 207.6 99.24 207.93 99.39C208.09 99.46 222.47 87.01 223.85 85.11C225.16 83.31 228.66 75.76 229.71 75.93C229.71 75.93 229.71 75.93 229.71 75.94C229.79 76.11 231.06 78.87 232.27 82.91C232.29 82.98 232.31 83.04 232.33 83.11C233.16 85.92 233.08 88.98 232.63 92.41C232.29 95 230.36 99.24 229.19 101.3C229.05 101.55 229.09 102.02 229.24 102.38C229.33 102.59 229.46 102.77 229.62 102.83L233.84 104.39L234.83 104.76C235.54 105.02 236.29 104.89 236.85 104.48C237.31 104.15 237.64 103.63 237.72 103.01C238.66 95.79 239.84 88.42 240.79 85.64C244.94 73.45 239.17 64.3 239.17 64.3C239.17 64.3 232.37 65.08 231.05 65.57Z" fill="#EDDAD3"/>
<path d="M252.6 112L259.22 93.9299L280.56 94.2799L274.25 110.93L252.6 112Z" fill="#6E6760"/>
<path d="M266.05 101.93C265.4 103.23 265.6 104.65 266.49 105.1C267.38 105.55 268.64 104.85 269.29 103.55C269.94 102.25 269.75 100.83 268.85 100.38C267.95 99.93 266.7 100.62 266.05 101.93Z" fill="#807066"/>
<path d="M243.56 52.5901C243.56 52.5901 244.93 54.7201 243.66 56.5501C242.4 58.3801 243.98 60.1901 244.25 62.1301C244.52 64.0701 238.98 69.2301 245.15 71.8301C251.32 74.4301 253.28 70.1301 251.7 67.7701C250.13 65.4101 249.01 63.4901 248.88 60.1201C248.75 56.7501 247.64 51.5001 243.56 52.5901Z" fill="#464240"/>
<path d="M198.89 27.0701H225.17V46.1201V50.1401L221.16 46.1201H198.89V27.0701Z" fill="#8454F5"/>
</g>
<defs>
<linearGradient id="paint0_linear_1_306" x1="114.972" y1="219.566" x2="415.401" y2="219.566" gradientUnits="userSpaceOnUse">
<stop stop-color="#40D5E6"/>
<stop offset="1" stop-color="#5577FF"/>
</linearGradient>
<linearGradient id="paint1_linear_1_306" x1="132.69" y1="206.266" x2="383.519" y2="206.266" gradientUnits="userSpaceOnUse">
<stop stop-color="#404B61"/>
<stop offset="0.486" stop-color="#3C4860"/>
<stop offset="1" stop-color="#2F3E5C"/>
</linearGradient>
<linearGradient id="paint2_linear_1_306" x1="463.692" y1="298.879" x2="528.231" y2="298.879" gradientUnits="userSpaceOnUse">
<stop stop-color="#3076A1"/>
<stop offset="1" stop-color="#639C38"/>
</linearGradient>
<linearGradient id="paint3_linear_1_306" x1="458.086" y1="289.471" x2="542.35" y2="289.471" gradientUnits="userSpaceOnUse">
<stop stop-color="#3076A1"/>
<stop offset="1" stop-color="#639C38"/>
</linearGradient>
<linearGradient id="paint4_linear_1_306" x1="438.726" y1="276.722" x2="493.079" y2="276.722" gradientUnits="userSpaceOnUse">
<stop stop-color="#3076A1"/>
<stop offset="1" stop-color="#639C38"/>
</linearGradient>
<linearGradient id="paint5_linear_1_306" x1="453.833" y1="288.476" x2="470.313" y2="288.476" gradientUnits="userSpaceOnUse">
<stop stop-color="#3076A1"/>
<stop offset="1" stop-color="#639C38"/>
</linearGradient>
<linearGradient id="paint6_linear_1_306" x1="416.535" y1="291.742" x2="469.737" y2="291.742" gradientUnits="userSpaceOnUse">
<stop stop-color="#3076A1"/>
<stop offset="1" stop-color="#639C38"/>
</linearGradient>
<linearGradient id="paint7_linear_1_306" x1="452.158" y1="412.282" x2="496.918" y2="238.212" gradientUnits="userSpaceOnUse">
<stop stop-color="#3076A1"/>
<stop offset="1" stop-color="#639C38"/>
</linearGradient>
<linearGradient id="paint8_linear_1_306" x1="468.428" y1="322.048" x2="488.096" y2="322.048" gradientUnits="userSpaceOnUse">
<stop stop-color="#3076A1"/>
<stop offset="1" stop-color="#639C38"/>
</linearGradient>
<linearGradient id="paint9_linear_1_306" x1="451.539" y1="357.509" x2="487.9" y2="357.509" gradientUnits="userSpaceOnUse">
<stop stop-color="#FF9340"/>
<stop offset="1" stop-color="#FFCE45"/>
</linearGradient>
<linearGradient id="paint10_linear_1_306" x1="451.539" y1="357.509" x2="487.9" y2="357.509" gradientUnits="userSpaceOnUse">
<stop stop-color="#C97332"/>
<stop offset="1" stop-color="#FFCE45"/>
</linearGradient>
<linearGradient id="paint11_linear_1_306" x1="258.385" y1="280.11" x2="258.385" y2="446.687" gradientUnits="userSpaceOnUse">
<stop stop-color="#40D5E6"/>
<stop offset="1" stop-color="#5577FF"/>
</linearGradient>
<linearGradient id="paint12_linear_1_306" x1="-59.0689" y1="405.67" x2="270.416" y2="405.67" gradientUnits="userSpaceOnUse">
<stop stop-color="#40D5E6"/>
<stop offset="1" stop-color="#5577FF"/>
</linearGradient>
<clipPath id="clip0_1_306">
<rect width="542.35" height="409.97" fill="white"/>
</clipPath>
</defs>
</svg>
